<?xml version="1.0" encoding="UTF-8" standalone="no"?>
<!DOCTYPE svg PUBLIC "-//W3C//DTD SVG 1.1//EN" "http://www.w3.org/Graphics/SVG/1.1/DTD/svg11.dtd">
<svg width="100%" height="100%" viewBox="0 0 64 64" version="1.1" xmlns="http://www.w3.org/2000/svg" xmlns:xlink="http://www.w3.org/1999/xlink" xml:space="preserve" xmlns:serif="http://www.serif.com/" style="fill-rule:evenodd;clip-rule:evenodd;stroke-linejoin:round;stroke-miterlimit:2;">
    <g transform="matrix(-1.087719,0,0,1.087719,63.543996,2.743875)">
        <path d="M51.8,22.3C54.948,22.3 57.5,19.748 57.5,16.6L51.649,5.2L40.4,5.2L33.53,5.2L24.47,5.2L17.6,5.2L6.351,5.2L0.5,16.6C0.5,19.748 3.052,22.3 6.2,22.3L6.2,39.4C6.2,45.692 11.308,50.8 17.6,50.8L40.4,50.8C46.692,50.8 51.8,45.692 51.8,39.4L51.8,22.3Z" style="fill:rgb(0,178,166);stroke:white;stroke-width:1.84px;"/>
    </g>
    <g transform="matrix(-1.087719,0,0,1.087719,63.543996,2.743875)">
        <path d="M51.8,16.6C51.8,10.308 46.692,5.2 40.4,5.2L17.6,5.2C11.308,5.2 6.2,10.308 6.2,16.6L6.2,39.4C6.2,45.692 11.308,50.8 17.6,50.8L40.4,50.8C46.692,50.8 51.8,45.692 51.8,39.4L51.8,16.6Z" style="fill:rgb(0,178,166);"/>
    </g>
    <g transform="matrix(0.882494,0,0,0.882494,7.63428,15.8192)">
        <g transform="matrix(0.968747,0,0,0.968747,0.86281,1.932734)">
            <g transform="matrix(1,0,0,1,2.794,38.052)">
                <text x="0px" y="0px" style="font-family:'GraphikCompact-Bold', 'Graphik Compact';font-weight:700;font-size:27.196px;fill:white;">P</text>
            </g>
            <g transform="matrix(1,0,0,1,18.106,38.052)">
                <text x="0px" y="0px" style="font-family:'GraphikCompact-Bold', 'Graphik Compact';font-weight:700;font-size:27.196px;fill:white;">O<tspan x="18.384px " y="0px ">S</tspan></text>
            </g>
        </g>
    </g>
    <g transform="matrix(1,0,0,1,0,-6.4)">
        <g transform="matrix(0.968747,0,0,0.968747,1.000016,2.400033)">
            <path d="M12.801,25.6L16.742,12.8L26.914,12.8L25.601,25.6L25.6,25.6C25.6,29.135 22.735,32 19.2,32C15.666,32 12.8,29.135 12.8,25.6L12.801,25.6ZM38.401,25.6L37.086,12.8L47.258,12.8L51.201,25.6L51.2,25.6C51.2,29.135 48.335,32 44.8,32C41.266,32 38.4,29.135 38.4,25.6L38.401,25.6Z" style="fill:white;fill-rule:nonzero;"/>
        </g>
        <g transform="matrix(1.087719,0,0,1.087719,-69.293363,8.056162)">
            <path d="M76.025,17.6C76.025,20.748 73.473,23.3 70.325,23.3C67.177,23.3 64.625,20.748 64.625,17.6L70.476,6.2L79.536,6.2L76.025,17.6ZM98.825,17.6C98.825,20.748 96.273,23.3 93.125,23.3C89.977,23.3 87.425,20.748 87.425,17.6L88.595,6.2L97.655,6.2L98.825,17.6ZM121.625,17.6C121.625,20.748 119.073,23.3 115.925,23.3C112.777,23.3 110.225,20.748 110.225,17.6L106.714,6.2L115.774,6.2L121.625,17.6Z" style="fill:rgb(41,63,84);fill-rule:nonzero;"/>
        </g>
    </g>
</svg>
