<?xml version="1.0" encoding="UTF-8" standalone="no"?>
<!DOCTYPE svg PUBLIC "-//W3C//DTD SVG 1.1//EN" "http://www.w3.org/Graphics/SVG/1.1/DTD/svg11.dtd">
<svg width="100%" height="100%" viewBox="0 0 86 14" version="1.1" xmlns="http://www.w3.org/2000/svg" xmlns:xlink="http://www.w3.org/1999/xlink" xml:space="preserve" xmlns:serif="http://www.serif.com/" style="fill-rule:evenodd;clip-rule:evenodd;stroke-linejoin:round;stroke-miterlimit:2;">
    <path d="M10.335,9.645L10.335,12.934L7.516,12.934L7.516,9.645C7.516,9.175 7.282,8.94 7.047,8.94C6.811,8.94 6.577,9.176 6.577,9.645L6.577,12.934L3.758,12.934L3.758,9.645C3.758,9.175 3.523,8.94 3.289,8.94C3.053,8.94 2.818,9.176 2.818,9.645L2.818,12.934L0,12.934L0,6.709L2.701,6.709L2.936,7.414C2.936,7.414 3.406,6.532 4.58,6.532C5.755,6.532 6.342,7.648 6.342,7.648C6.342,7.648 7.047,6.532 8.221,6.532C9.395,6.532 10.335,7.472 10.335,9.645" style="fill:rgb(0,178,166);fill-rule:nonzero;"/>
    <path d="M14.21,12.933L11.391,12.933L11.391,6.709L14.21,6.709L14.21,12.933ZM11.391,3.772L14.21,3.772L14.21,6.005L11.391,6.004L11.391,3.772Z" style="fill:rgb(0,178,166);fill-rule:nonzero;"/>
    <path d="M22.547,3.773L22.547,6.474L20.316,6.474L20.316,12.933L17.263,12.933L17.263,6.474L15.031,6.474L15.031,3.773L22.547,3.773Z" style="fill:white;fill-rule:nonzero;"/>
    <path d="M26.188,12.933L23.369,12.933L23.369,6.709L26.188,6.709L26.188,12.933ZM23.369,3.772L26.188,3.772L26.188,6.005L23.369,6.004L23.369,3.772Z" style="fill:white;fill-rule:nonzero;"/>
    <path d="M30.944,9.293C30.944,8.823 30.709,8.588 30.415,8.588C30.122,8.588 29.887,8.823 29.887,9.292L30.943,9.292L30.944,9.293ZM33.705,9.822L33.705,10.409L29.946,10.409C29.946,10.409 30.064,11.055 31.003,11.055C31.59,11.055 32.061,10.586 32.061,10.586L33.059,12.171C33.059,12.171 32.178,13.11 30.592,13.11C28.595,13.11 27.128,11.642 27.128,9.822C27.128,8.002 28.595,6.534 30.416,6.534C32.237,6.534 33.704,8.002 33.704,9.822" style="fill:white;fill-rule:nonzero;"/>
    <path d="M41.102,9.645L41.101,12.934L38.283,12.934L38.283,9.645C38.283,9.175 38.048,8.94 37.813,8.94C37.578,8.94 37.343,9.176 37.343,9.645L37.343,12.934L34.525,12.934L34.525,6.709L37.226,6.709L37.461,7.414C37.461,7.414 37.93,6.532 38.987,6.532C40.162,6.532 41.101,7.472 41.101,9.645" style="fill:white;fill-rule:nonzero;"/>
    <path d="M45.505,10.702C45.857,10.702 46.15,10.409 46.15,9.821C46.15,9.234 45.857,8.94 45.505,8.94C45.152,8.94 44.859,9.234 44.859,9.821C44.859,10.409 45.152,10.702 45.505,10.702M44.389,6.533C45.563,6.533 46.034,7.414 46.034,7.414L46.033,3.773L48.852,3.773L48.852,12.933L46.268,12.933L46.033,12.229C46.033,12.229 45.563,13.109 44.389,13.109C43.097,13.109 41.923,11.935 41.923,9.821C41.923,7.707 43.097,6.532 44.389,6.532" style="fill:white;fill-rule:nonzero;"/>
    <path d="M53.432,10.232C52.786,10.232 52.492,10.525 52.492,10.878C52.492,11.054 52.668,11.23 52.844,11.23C53.138,11.23 53.431,10.937 53.431,10.232M56.25,9.821L56.25,12.933L53.548,12.933L53.314,12.229C53.314,12.229 52.844,13.109 51.787,13.109C50.495,13.109 49.673,12.287 49.673,11.172C49.673,10.056 50.495,9.234 52.492,9.234L53.431,9.234C53.431,9.234 53.314,8.588 52.374,8.588C51.787,8.588 51.317,9.058 51.317,9.058L50.319,7.472C50.319,7.472 51.2,6.532 52.786,6.532C54.782,6.532 56.25,8.001 56.25,9.821" style="fill:white;fill-rule:nonzero;"/>
    <path d="M30.412,3.773C30.412,4.822 31.262,5.672 32.312,5.672C33.36,5.672 34.211,4.822 34.211,3.773L34.601,0L31.582,0L30.412,3.773Z" style="fill:white;fill-rule:nonzero;"/>
    <path d="M40.64,0L37.62,0L38.01,3.773C38.01,4.822 38.861,5.672 39.91,5.672C40.959,5.672 41.81,4.822 41.81,3.773L40.64,0Z" style="fill:white;fill-rule:nonzero;"/>
    <path d="M26.612,3.773C26.612,4.434 27.463,5.672 28.512,5.672C29.561,5.672 30.412,4.434 30.412,3.773L31.582,0L28.562,0L26.612,3.773Z" style="fill:rgb(0,178,166);fill-rule:nonzero;"/>
    <path d="M34.6,0L34.21,3.773C34.21,4.434 35.061,5.672 36.11,5.672C37.16,5.672 38.01,4.434 38.01,3.773L37.62,0L34.6,0Z" style="fill:rgb(0,178,166);fill-rule:nonzero;"/>
    <path d="M43.659,0L40.64,0L41.81,3.773C41.81,4.434 42.66,5.672 43.709,5.672C44.759,5.672 45.609,4.434 45.609,3.773L43.659,0Z" style="fill:rgb(0,178,166);fill-rule:nonzero;"/>
    <g transform="matrix(0.832217,0,0,0.832217,1.08926,6.44797)">
        <path d="M74.033,-3.196C74.716,-3.196 75.324,-3.039 75.857,-2.724C76.39,-2.409 76.806,-1.977 77.105,-1.428C77.404,-0.879 77.553,-0.263 77.553,0.42L77.553,0.628C77.553,1.311 77.404,1.929 77.105,2.484C76.806,3.039 76.39,3.473 75.857,3.788C75.324,4.103 74.716,4.26 74.033,4.26L71.393,4.26L71.393,7.812L67.857,7.812L67.857,-3.196L74.033,-3.196ZM71.393,1.684L72.849,1.684C73.222,1.684 73.502,1.588 73.689,1.396C73.876,1.204 73.969,0.943 73.969,0.612L73.969,0.484C73.969,0.143 73.876,-0.121 73.689,-0.308C73.502,-0.495 73.222,-0.588 72.849,-0.588L71.393,-0.588L71.393,1.684Z" style="fill:rgb(234,106,151);fill-rule:nonzero;"/>
        <path d="M84.081,-3.388C85.98,-3.388 87.446,-2.903 88.481,-1.932C89.516,-0.961 90.033,0.452 90.033,2.308C90.033,4.164 89.516,5.577 88.481,6.548C87.446,7.519 85.98,8.004 84.081,8.004C82.182,8.004 80.718,7.521 79.689,6.556C78.66,5.591 78.145,4.175 78.145,2.308C78.145,0.441 78.66,-0.975 79.689,-1.94C80.718,-2.905 82.182,-3.388 84.081,-3.388ZM84.081,-0.748C83.324,-0.748 82.748,-0.519 82.353,-0.06C81.958,0.399 81.761,1.017 81.761,1.796L81.761,2.82C81.761,3.599 81.958,4.217 82.353,4.676C82.748,5.135 83.324,5.364 84.081,5.364C84.838,5.364 85.417,5.135 85.817,4.676C86.217,4.217 86.417,3.599 86.417,2.82L86.417,1.796C86.417,1.017 86.217,0.399 85.817,-0.06C85.417,-0.519 84.838,-0.748 84.081,-0.748Z" style="fill:rgb(234,106,151);fill-rule:nonzero;"/>
        <path d="M95.761,-3.388C97.169,-3.388 98.326,-3.103 99.233,-2.532C100.14,-1.961 100.604,-1.116 100.625,0.004L100.625,0.196L97.313,0.196L97.313,0.132C97.313,-0.188 97.196,-0.455 96.961,-0.668C96.726,-0.881 96.369,-0.988 95.889,-0.988C95.42,-0.988 95.06,-0.919 94.809,-0.78C94.558,-0.641 94.433,-0.471 94.433,-0.268C94.433,0.02 94.604,0.233 94.945,0.372C95.286,0.511 95.836,0.655 96.593,0.804C97.478,0.985 98.206,1.175 98.777,1.372C99.348,1.569 99.846,1.892 100.273,2.34C100.7,2.788 100.918,3.396 100.929,4.164C100.929,5.465 100.489,6.431 99.609,7.06C98.729,7.689 97.553,8.004 96.081,8.004C94.364,8.004 93.028,7.716 92.073,7.14C91.118,6.564 90.641,5.545 90.641,4.084L93.985,4.084C93.985,4.639 94.129,5.009 94.417,5.196C94.705,5.383 95.153,5.476 95.761,5.476C96.209,5.476 96.58,5.428 96.873,5.332C97.166,5.236 97.313,5.039 97.313,4.74C97.313,4.473 97.15,4.273 96.825,4.14C96.5,4.007 95.969,3.865 95.233,3.716C94.337,3.524 93.596,3.324 93.009,3.116C92.422,2.908 91.91,2.564 91.473,2.084C91.036,1.604 90.817,0.953 90.817,0.132C90.817,-1.073 91.284,-1.961 92.217,-2.532C93.15,-3.103 94.332,-3.388 95.761,-3.388Z" style="fill:rgb(234,106,151);fill-rule:nonzero;"/>
    </g>
</svg>
